<?xml version="1.0" encoding="UTF-8"?>
<svg version="1.1" xmlns="http://www.w3.org/2000/svg" width="4500" height="4500">
<path d="M0 0 C2.34433501 -0.00159103 4.68866957 -0.00405754 7.03300285 -0.00731641 C12.77844166 -0.01303584 18.52382193 -0.00952461 24.26925745 -0.00202497 C31.17180859 0.0064535 38.07434221 0.00319147 44.97689587 -0.00038134 C57.78133668 -0.0066621 70.58575903 -0.00346814 83.39019775 0.00521278 C96.23830332 0.01391614 109.08640063 0.01873103 121.93450928 0.01854515 C122.74237975 0.01853751 123.55025021 0.01852986 124.3826016 0.01852198 C127.66689548 0.01848104 130.95118935 0.01841537 134.23548322 0.01831617 C165.17811378 0.01740736 196.1207322 0.02735807 227.06335852 0.04274584 C253.89461716 0.05604265 280.72586699 0.06255567 307.55712891 0.06193542 C309.24647729 0.06190408 310.93582567 0.06187397 312.62517405 0.06184508 C313.46095955 0.06183075 314.29674506 0.06181642 315.1578574 0.06180166 C319.37365054 0.06173081 323.58944368 0.06166243 327.80523682 0.06160164 C328.63869744 0.06158863 329.47215806 0.06157563 330.33087507 0.06156223 C413.10764486 0.0604529 495.88460656 0.071461 860.67236328 1.24723816 C857.7960729 4.14274322 854.92832986 6.9419383 851.79736328 9.55973816 C838.30638684 21.43381855 830.04591509 37.70893329 828.45361328 55.72184753 C827.18437081 76.87060021 831.57443772 96.57707549 845.57861328 113.00505066 C858.22255343 126.54538954 874.06757024 134.73556726 892.80126953 135.45036316 C914.24538314 135.8257314 932.11566095 130.21288354 947.98486328 115.49723816 C963.11761007 99.37479696 967.35316236 79.47793382 966.97705078 58.20817566 C966.30557834 40.53346723 958.52885234 23.38698915 945.67236328 11.24723816 C943.61362211 9.36065653 941.53971548 7.51269566 939.39892578 5.71989441 C937.7347556 4.30045514 936.20934458 2.80174029 934.67236328 1.24723816 C942.26710478 1.17059967 949.86174498 1.11839326 957.45678711 1.08244324 C960.03560106 1.06744169 962.61438987 1.04703389 965.19311523 1.0209198 C968.91933432 0.98415501 972.64521341 0.96742477 976.37158203 0.95426941 C977.50754318 0.93878555 978.64350433 0.9233017 979.81388855 0.90734863 C993.04758145 0.90462297 1005.36785668 3.35338889 1015.42236328 12.37223816 C1023.61212155 21.11304744 1025.98051106 33.34611745 1025.95083618 44.93824768 C1025.95952532 46.18482545 1025.95952532 46.18482545 1025.96838999 47.4565866 C1025.98532368 50.23238426 1025.98826629 53.00801415 1025.99121094 55.78385925 C1026.00053131 57.80180183 1026.01069804 59.81974064 1026.02163506 61.83767509 C1026.04912893 67.38827225 1026.06418168 72.93884366 1026.07705498 78.48949146 C1026.09303151 84.50990251 1026.1200314 90.53026643 1026.14538574 96.55064392 C1026.19336455 108.41692522 1026.22991327 120.28321742 1026.26228499 132.14954853 C1026.28883931 141.84893483 1026.31964093 151.54830012 1026.35296631 161.24766541 C1026.62038844 239.49781613 1026.74531298 317.74829437 1026.79375947 432.83805501 C1026.79556767 440.91050277 1026.79780622 448.98294983 1026.8013382 457.05539703 C1026.80874143 474.09777044 1026.81339123 491.14013458 1026.80812526 508.18250942 C1026.80768215 509.64103889 1026.80724319 511.09956837 1026.80680847 512.55809784 C1026.80659441 513.27296643 1026.80638035 513.98783503 1026.80615981 514.72436631 C1026.80492991 519.62727346 1026.80614861 524.53017596 1026.80848694 529.43308258 C1026.82954044 578.40639522 1026.82954044 578.40639522 1026.39994788 596.99048591 C1026.35413059 599.01602915 1026.31924337 601.04181103 1026.28500557 603.06758308 C1025.891621 616.52949839 1023.45037923 627.97659212 1013.48486328 637.55973816 C1000.25669303 647.94097612 980.53351246 646.49506862 964.67236328 646.24723816 C964.67236328 636.67723816 964.67236328 627.10723816 964.67236328 617.24723816 C962.01947266 617.39805847 959.36658203 617.54887878 956.63330078 617.70426941 C954.01534147 617.80613872 951.39761634 617.88478305 948.77880859 617.96134949 C946.98187815 618.02607625 945.18561443 618.11431031 943.39111328 618.22795105 C933.96463289 618.80921561 926.66023427 619.02267715 919.27334595 612.53866577 C916.57685929 609.88851737 914.09342568 607.15226111 911.67236328 604.24723816 C916.93665855 598.90916787 916.93665855 598.90916787 919.87939453 596.55583191 C920.4574585 596.09241394 921.03552246 595.62899597 921.63110352 595.15153503 C922.24284424 594.66749207 922.85458496 594.1834491 923.48486328 593.68473816 C924.13720947 593.1658905 924.78955566 592.64704285 925.46166992 592.11247253 C931.27638236 587.51230877 937.1870153 583.04512521 943.13720703 578.62223816 C943.78415527 578.11338074 944.43110352 577.60452332 945.09765625 577.08024597 C947.26582304 575.53666582 949.38248638 574.28391656 951.70410156 573.00016785 C959.68762656 568.36573105 959.68762656 568.36573105 964.50900269 560.81486511 C965.65854679 554.053991 965.13488898 547.30203838 964.67236328 540.49723816 C964.59197442 538.43241136 964.51899335 536.36728217 964.45361328 534.30192566 C964.27852393 529.27614035 964.00340491 524.26506534 963.67236328 519.24723816 C963.24709854 519.61715378 962.8218338 519.9870694 962.38368225 520.36819458 C960.42982221 522.06695734 958.47492876 523.76452667 956.52001953 525.46208191 C955.85119751 526.04389221 955.18237549 526.62570251 954.49328613 527.22514343 C949.89055944 531.21998937 945.21723467 535.10317441 940.48095703 538.93864441 C937.16937848 541.66067907 933.91923269 544.44863547 930.67236328 547.24723816 C925.68576957 551.54463334 920.63653451 555.7482792 915.52392578 559.89567566 C912.15582277 562.67320718 908.8523203 565.52020226 905.54736328 568.37223816 C903.25916556 570.33465752 900.96636779 572.29161327 898.67236328 574.24723816 C897.76486328 575.02454285 896.85736328 575.80184753 895.92236328 576.60270691 C895.13861328 577.24852722 894.35486328 577.89434753 893.54736328 578.55973816 C892.88478516 579.11274597 892.22220703 579.66575378 891.53955078 580.23551941 C889.67236328 581.24723816 889.67236328 581.24723816 887.74023438 580.97892761 C884.20804283 579.7291073 881.95137549 576.783352 879.42236328 574.12223816 C878.2576203 572.92505109 877.09096343 571.72972295 875.92236328 570.53630066 C875.08125 569.67633484 875.08125 569.67633484 874.22314453 568.79899597 C871.78804666 566.36236466 869.18730921 564.14647798 866.56298828 561.91911316 C863.5299722 559.23702456 860.73727894 556.31990567 857.89501953 553.43864441 C855.24534889 550.82622748 852.46063525 548.41421195 849.63720703 545.99333191 C846.93857967 543.59514815 844.42921753 541.03112292 841.92236328 538.43473816 C838.62851204 535.23238278 835.14765296 532.25015837 831.67236328 529.24723816 C831.37326958 534.88438756 831.15691191 540.51682736 831.01318359 546.16007996 C830.95322791 548.07431031 830.87162202 549.98800014 830.76708984 551.90031433 C829.77400519 563.55709717 829.77400519 563.55709717 834.20361328 573.86784363 C837.07959506 576.73199301 840.30270692 578.98969432 843.67236328 581.24723816 C845.51814405 582.7318945 847.35362615 584.22957338 849.17236328 585.74723816 C850.06955078 586.46911316 850.96673828 587.19098816 851.89111328 587.93473816 C854.91256404 590.44695565 857.79667925 593.07134433 860.67236328 595.74723816 C866.76916817 601.4171679 873.16233817 606.67934596 879.69189453 611.84489441 C881.05270058 612.93800091 882.36972498 614.08542562 883.67236328 615.24723816 C883.67236328 615.90723816 883.67236328 616.56723816 883.67236328 617.24723816 C846.05236328 617.24723816 808.43236328 617.24723816 769.67236328 617.24723816 C769.67236328 626.81723816 769.67236328 636.38723816 769.67236328 646.24723816 C693.72400371 646.29842552 617.77564267 646.34635791 541.82727051 646.37426758 C540.70309912 646.37468175 539.57892774 646.37509592 538.42069056 646.37552264 C513.98905212 646.3845015 489.55741349 646.39281202 465.12577459 646.40043415 C453.14439656 646.40417614 441.16301858 646.4080658 429.18164062 646.41203308 C427.98935346 646.41242536 426.79706629 646.41281764 425.56864921 646.4132218 C386.9275329 646.42600441 348.28642977 646.44853729 309.64532144 646.47612982 C269.93450147 646.50443469 230.22368879 646.52289614 190.51285891 646.52898313 C184.90318013 646.52984759 179.29350138 646.5308245 173.68382263 646.53186989 C172.57976417 646.53207216 171.4757057 646.53227443 170.33819092 646.53248282 C152.57036944 646.53602711 134.8025705 646.54993898 117.03475821 646.56773426 C99.16940822 646.58540575 81.30408056 646.59213964 63.43872213 646.58774229 C52.8263657 646.58546167 42.21409103 646.59153392 31.60174937 646.60963079 C24.50743353 646.62090119 17.41317108 646.62121455 10.31885152 646.6127336 C6.27997709 646.60821557 2.24125702 646.6083522 -1.79760069 646.62188771 C-45.53825701 646.75974225 -45.53825701 646.75974225 -57.12451172 636.68473816 C-71.22262744 621.60952531 -68.47725279 597.47973471 -68.47480774 578.50022888 C-68.47811077 576.17488728 -68.48183725 573.84954624 -68.48594922 571.52420592 C-68.49592661 565.15171946 -68.49967908 558.77924241 -68.50233853 552.40674925 C-68.50537113 546.23436444 -68.51399979 540.06198599 -68.52188246 533.88960588 C-68.54267073 517.36624879 -68.5531864 500.84288997 -68.56201207 484.31952285 C-68.5662252 476.49816505 -68.57144617 468.67680802 -68.5766966 460.85545086 C-68.59457877 434.0640526 -68.60957474 407.2726541 -68.61701679 380.48125076 C-68.61749154 378.80116359 -68.61796743 377.12107641 -68.61844445 375.44098924 C-68.61868083 374.60785571 -68.61891721 373.77472219 -68.61916075 372.91634219 C-68.62036189 368.69558615 -68.62157736 364.47483012 -68.62280273 360.2540741 C-68.62304288 359.4164696 -68.62328303 358.5788651 -68.62353046 357.71587865 C-68.63142509 330.55287029 -68.65486444 303.38990557 -68.68735868 276.22691627 C-68.72167959 247.48434153 -68.74136981 218.74179233 -68.74466103 189.99919677 C-68.74507855 186.84235238 -68.74555811 183.68550801 -68.74608421 180.52866364 C-68.746269 179.36277349 -68.746269 179.36277349 -68.74645752 178.17333 C-68.7487862 165.68388847 -68.76442697 153.19449782 -68.78492606 140.7050744 C-68.8052114 128.14648027 -68.81064847 115.58794706 -68.80115543 103.02933958 C-68.79640847 96.23041432 -68.79850291 89.43166356 -68.81791687 82.63275909 C-68.83555319 76.40254956 -68.8345466 70.17262493 -68.81901958 63.94241235 C-68.81664434 61.69485308 -68.82096259 59.44727406 -68.83284823 57.19974497 C-68.99841766 23.80931402 -68.99841766 23.80931402 -58.32763672 12.24723816 C-43.39738237 -2.28925124 -19.2361592 -0.04758327 0 0 Z M845.98486328 192.37223816 C831.23939238 207.98819303 827.11023144 226.73860112 827.39892578 247.55192566 C828.0368658 266.54485273 836.56757683 283.84504206 850.29736328 296.87223816 C866.58333381 310.32724897 885.93332088 314.48625161 906.67236328 313.24723816 C925.20059148 310.87038464 941.57139044 302.22467631 953.64892578 287.90348816 C966.76054102 270.11327893 970.19581234 249.50199162 967.36328125 227.88883972 C964.29372684 211.00825058 954.61241186 195.29655676 940.67236328 185.24723816 C933.0975044 180.79195573 926.40510896 178.18784831 917.67236328 176.24723816 C917.67236328 189.11723816 917.67236328 201.98723816 917.67236328 215.24723816 C920.31236328 216.56723816 922.95236328 217.88723816 925.67236328 219.24723816 C931.13468177 223.76211025 934.45627691 229.27939194 935.67236328 236.24723816 C936.63453484 246.38391881 935.1380597 255.16511764 928.67236328 263.24723816 C921.73576314 270.64751478 912.69361584 273.88572595 902.70361328 274.48551941 C890.29437763 274.79105762 878.45149419 273.89803607 868.61376953 265.41911316 C862.24348282 258.29259523 859.32383422 249.72722865 859.67236328 240.24723816 C860.22414678 232.77000867 862.62637189 226.84530739 867.67236328 221.24723816 C871.11719381 218.518724 874.50865995 216.63513927 878.67236328 215.24723816 C878.67236328 202.37723816 878.67236328 189.50723816 878.67236328 176.24723816 C866.64558696 176.24723816 854.51709755 184.40881951 845.98486328 192.37223816 Z M845.29736328 374.55973816 C830.30764019 392.10038657 826.2232105 412.69609559 827.67236328 435.24723816 C829.71527717 452.62875143 838.25502104 467.2828081 850.67236328 479.24723816 C851.23181641 479.83762878 851.79126953 480.42801941 852.36767578 481.03630066 C865.11579039 493.51743905 883.66686221 496.75994537 900.66967773 496.66740417 C919.21516968 496.2154273 935.31254674 489.26083995 948.67236328 476.24723816 C964.22118435 458.92924034 968.94451152 438.80009821 967.87939453 415.99137878 C966.40481417 396.4462334 956.26674801 379.14883227 941.64111328 366.41911316 C912.04470494 344.7670039 870.71382178 347.87245674 845.29736328 374.55973816 Z " fill="#FEE8D0" transform="translate(1862.32763671875,1551.7527618408203)"/>
<path d="M0 0 C10.1413442 3.38044807 10.1413442 3.38044807 14.32421875 5.109375 C15.32420898 5.52203613 16.32419922 5.93469727 17.35449219 6.35986328 C19.00433105 7.04798096 19.00433105 7.04798096 20.6875 7.75 C21.89954102 8.2538623 23.11158203 8.75772461 24.36035156 9.27685547 C55.94217701 22.4387403 87.40159605 35.9008405 118.70410156 49.71337891 C129.2746243 54.37629475 139.87274468 58.96794603 150.5 63.5 C163.20336012 68.91786894 175.86107802 74.43351293 188.5 80 C201.58352607 85.76126512 214.68783946 91.46693725 227.83651733 97.07788086 C240.559466 102.50819548 253.24950376 108.01235601 265.93450928 113.53067017 C291.18870444 124.51552638 316.50819995 135.34120958 341.85514832 146.11004639 C348.32688375 148.86053004 354.79491215 151.61944485 361.2578125 154.390625 C362.0324585 154.72274994 362.80710449 155.05487488 363.60522461 155.39706421 C367.21441632 156.94531774 370.82241046 158.49629344 374.42871094 160.05126953 C380.74540518 162.77178349 387.07268644 165.45182026 393.4453125 168.0390625 C411.40973547 175.36083759 427.43389443 182.27095819 435.95703125 200.80078125 C439.40105578 211.36503628 439.26775046 222.00223596 439.19873047 232.98071289 C439.19484581 234.77889348 439.19180202 236.57707605 439.18952942 238.3752594 C439.18049915 243.23056669 439.15831819 248.08572624 439.13258505 252.94097066 C439.11194903 257.00407926 439.09702448 261.06720187 439.08182538 265.13033384 C439.04554829 274.7182188 438.99774074 284.30600097 438.94335938 293.89379883 C438.88762071 303.76687433 438.85419929 313.63985452 438.83125198 323.51305586 C438.81055203 332.01026664 438.77456639 340.50732387 438.7267276 349.00442499 C438.69844404 354.070598 438.67618453 359.13661639 438.66924667 364.20286751 C438.66217524 368.96622194 438.63599323 373.7291016 438.59541893 378.49228477 C438.58375661 380.23446075 438.57875689 381.97669681 438.58111382 383.71891022 C438.59027828 393.85189918 438.48859903 403.09872793 432.09326172 411.50683594 C425.95396489 416.70943047 419.47211036 420.02943302 412.125 423.25 C410.87941847 423.810131 409.63447657 424.37168628 408.39013672 424.93457031 C405.20819606 426.36917072 402.01805312 427.78436038 398.82470703 429.19335938 C396.04571697 430.42185592 393.27315188 431.66464203 390.5 432.90625 C386.15004835 434.84948255 381.79541394 436.78172434 377.4375 438.70703125 C368.65446032 442.58989477 359.88982419 446.51373007 351.125 450.4375 C350.30749268 450.8034024 349.48998535 451.16930481 348.64770508 451.54629517 C343.82804587 453.70350052 339.00865843 455.86131208 334.18945312 458.01953125 C332.1654265 458.92591962 330.14132439 459.83213914 328.1171875 460.73828125 C312.20248808 467.86348981 296.2989374 475.01325479 280.39883423 482.17095947 C263.80754076 489.63965235 247.20613069 497.08550481 230.60058594 504.52246094 C208.72185944 514.32198188 186.85995159 524.15868348 165 534 C158.10428899 537.10443847 151.20850222 540.20870846 144.3125 543.3125 C143.4707724 543.69135345 142.6290448 544.07020691 141.7618103 544.46054077 C130.20018018 549.66395002 118.63380635 554.85660017 107.06298828 560.03955078 C96.9331437 564.578476 86.80981589 569.13181494 76.6875 573.6875 C74.9969083 574.44824386 73.30631585 575.20898604 71.61572266 575.96972656 C63.6706986 579.54523403 55.72652861 583.12261787 47.78456116 586.70491028 C44.18094253 588.33019196 40.5768955 589.95452238 36.97280884 591.57876587 C35.26961111 592.34666044 33.56662102 593.11501575 31.86386108 593.88388062 C23.92035643 597.47060728 15.97238329 601.04671831 7.9765625 604.515625 C6.86619629 604.99805664 5.75583008 605.48048828 4.61181641 605.97753906 C2 607 2 607 0 607 C0 406.69 0 206.38 0 0 Z " fill="#FEE8D0" transform="translate(1099,1578)"/>
<path d="M0 0 C1.20008528 -0.00384115 2.40017057 -0.00768229 3.63662207 -0.01163983 C4.96996925 -0.0108596 6.30331638 -0.00998081 7.63666344 -0.00901413 C9.05192088 -0.01159792 10.46717759 -0.01461112 11.8824333 -0.01801753 C15.77623482 -0.02608933 19.6700179 -0.0278772 23.5638268 -0.028615 C27.76167435 -0.03046527 31.95951233 -0.03801254 36.15735435 -0.04475021 C45.33931296 -0.05833593 54.52126721 -0.06435879 63.7032342 -0.06876087 C69.43685721 -0.07152322 75.17047854 -0.07576059 80.90410042 -0.08026505 C96.77935302 -0.09245865 112.65460427 -0.10275738 128.52986145 -0.10614014 C129.54606362 -0.1063597 130.56226578 -0.10657927 131.60926195 -0.10680549 C133.13721462 -0.10713291 133.13721462 -0.10713291 134.69603503 -0.10746694 C136.76017801 -0.1079104 138.82432099 -0.10835697 140.88846397 -0.10880661 C141.91235035 -0.10902804 142.93623672 -0.10924947 143.99114995 -0.10947761 C160.57726719 -0.11342459 177.16334048 -0.13087514 193.74944074 -0.15416613 C210.77890429 -0.1778866 227.80834579 -0.19034233 244.83782613 -0.19150805 C254.39888488 -0.19242449 263.95988637 -0.19816878 273.52092934 -0.21632767 C281.66357844 -0.23173811 289.8061526 -0.23684358 297.94881351 -0.22858956 C302.10193313 -0.22468624 306.25490186 -0.22559705 310.40800285 -0.23964691 C314.21415774 -0.25240504 318.02004865 -0.25117167 321.82620327 -0.2390562 C323.84669613 -0.23618085 325.86719363 -0.24802054 327.88765013 -0.26047826 C337.75932599 -0.20696908 346.11077305 0.74975518 353.78836632 7.33845901 C360.77448669 16.4482012 357.02648872 32.96546473 356.41873741 43.83382034 C356.28837569 46.19375805 356.16900512 48.55409233 356.05008507 50.91463089 C354.56273194 78.88694404 354.56273194 78.88694404 347.81571007 86.69002151 C336.03377673 97.27805228 316.5637101 95.47797346 301.72586632 95.75642776 C300.01165655 95.79473413 298.29746341 95.83379248 296.58328819 95.87361526 C292.44345401 95.96818954 288.30353094 96.05270159 284.16336632 96.13142776 C292.74462769 107.61210979 301.40269918 119.03202122 310.09891319 130.42586136 C313.45624172 134.82580397 316.8096412 139.22873836 320.16336632 143.63142776 C321.49668003 145.38144272 322.83001338 147.1314427 324.16336632 148.88142776 C332.16336632 159.38142777 332.16336632 159.38142777 334.16409874 162.00740433 C335.49497104 163.75416407 336.82586291 165.50090891 338.15677452 167.2476387 C341.52792368 171.67209147 344.89871294 176.09681763 348.26883507 180.52205276 C354.39357846 188.56370058 360.52051531 196.60360014 366.66336632 204.63142776 C373.49398719 213.55807224 380.30487433 222.49970983 387.11502647 231.44197464 C390.46384121 235.83894045 393.81364659 240.23515139 397.16336632 244.63142776 C398.49670456 246.38142403 399.83003789 248.13142403 401.16336632 249.88142776 C401.82336632 250.74767776 402.48336632 251.61392776 403.16336632 252.50642776 C441.16336632 302.38142777 441.16336632 302.38142777 443.16409874 305.00740433 C444.49497104 306.75416407 445.82586291 308.50090891 447.15677452 310.2476387 C450.52792368 314.67209147 453.89871294 319.09681763 457.26883507 323.52205276 C463.39357846 331.56370058 469.52051531 339.60360014 475.66336632 347.63142776 C482.49398719 356.55807224 489.30487433 365.49970983 496.11502647 374.44197464 C499.46384121 378.83894045 502.81364659 383.23515139 506.16336632 387.63142776 C507.49670456 389.38142403 508.83003789 391.13142403 510.16336632 392.88142776 C510.82336632 393.74767776 511.48336632 394.61392776 512.16336632 395.50642776 C550.16336626 445.38142768 550.16336626 445.38142768 552.16409874 448.00740433 C553.49497104 449.75416407 554.82586291 451.50090891 556.15677452 453.2476387 C559.52792368 457.67209147 562.89871294 462.09681763 566.26883507 466.52205276 C572.39357846 474.56370058 578.52051531 482.60360014 584.66336632 490.63142776 C591.49398719 499.55807224 598.30487433 508.49970983 605.11502647 517.44197464 C608.46384121 521.83894045 611.81364659 526.23515139 615.16336632 530.63142776 C616.49670456 532.38142403 617.83003789 534.13142403 619.16336632 535.88142776 C619.82336632 536.74767776 620.48336632 537.61392776 621.16336632 538.50642776 C659.16336635 588.3814278 659.16336635 588.3814278 661.16409874 591.00740433 C662.49497104 592.75416407 663.82586291 594.50090891 665.15677452 596.2476387 C668.52792368 600.67209147 671.89871294 605.09681763 675.26883507 609.52205276 C681.39357846 617.56370058 687.52051531 625.60360014 693.66336632 633.63142776 C700.49398719 642.55807224 707.30487433 651.49970983 714.11502647 660.44197464 C717.46384121 664.83894045 720.81364659 669.23515139 724.16336632 673.63142776 C725.49670456 675.38142403 726.83003789 677.13142403 728.16336632 678.88142776 C728.82336632 679.74767776 729.48336632 680.61392776 730.16336632 681.50642776 C768.16336626 731.38142769 768.16336626 731.38142769 770.16409874 734.00740433 C771.49497104 735.75416407 772.82586291 737.50090891 774.15677452 739.2476387 C777.52792368 743.67209147 780.89871294 748.09681763 784.26883507 752.52205276 C790.39357846 760.56370058 796.52051531 768.60360014 802.66336632 776.63142776 C809.49398719 785.55807224 816.30487433 794.49970983 823.11502647 803.44197464 C826.46384121 807.83894045 829.81364659 812.23515139 833.16336632 816.63142776 C834.49670456 818.38142403 835.83003789 820.13142403 837.16336632 821.88142776 C837.82336632 822.74767776 838.48336632 823.61392776 839.16336632 824.50642776 C877.16336634 874.3814278 877.16336634 874.3814278 879.16409874 877.00740433 C880.49497104 878.75416407 881.82586291 880.50090891 883.15677452 882.2476387 C886.52792368 886.67209147 889.89871294 891.09681763 893.26883507 895.52205276 C899.39357884 903.56370107 905.52068807 911.60346754 911.66336632 919.63142776 C913.83034985 922.46451888 915.99692347 925.29792317 918.16336632 928.13142776 C919.17076866 929.44868851 919.17076866 929.44868851 920.19852257 930.79256058 C922.35465536 933.61294662 924.50916731 936.43456452 926.66336632 939.25642776 C927.33432335 940.1336348 928.00528038 941.01084183 928.69656944 941.91463089 C932.26956863 946.59810812 935.77029363 951.31587461 939.16336632 956.13142776 C937.49669965 957.79809443 935.83003298 959.4647611 934.16336632 961.13142776 C933.38992882 962.05955276 933.38992882 962.05955276 932.60086632 963.00642776 C931.16336632 964.13142776 931.16336632 964.13142776 929.33524132 963.97517776 C926.38649059 962.82961993 925.04240758 961.14292532 922.97586632 958.75642776 C922.18567101 957.84892776 921.39547569 956.94142776 920.58133507 956.00642776 C917.52247626 952.36940017 914.53384839 948.67853973 911.54617882 944.98299026 C908.56367756 941.41376744 905.41950472 938.0187981 902.25198936 934.61458206 C898.44951617 930.50381819 894.92073333 926.20876253 891.40946007 921.84627151 C889.07506042 919.02469281 886.64346033 916.32552065 884.16336632 913.63142776 C880.88918208 910.07472532 877.75694199 906.45980966 874.72586632 902.69392776 C871.5039353 898.6991879 868.15681137 894.88588427 864.66336632 891.13142776 C860.37381519 886.52138441 856.3592596 881.7535982 852.40946007 876.84627151 C850.07506042 874.02469281 847.64346033 871.32552065 845.16336632 868.63142776 C841.88918208 865.07472532 838.75694199 861.45980966 835.72586632 857.69392776 C832.5039353 853.6991879 829.15681137 849.88588427 825.66336632 846.13142776 C821.37381519 841.52138441 817.3592596 836.7535982 813.40946007 831.84627151 C811.07506042 829.02469281 808.64346033 826.32552065 806.16336632 823.63142776 C802.88918208 820.07472532 799.75694199 816.45980966 796.72586632 812.69392776 C793.06765617 808.15826333 789.21593666 803.87441607 785.24954796 799.61214066 C781.46846073 795.52481771 777.96646666 791.25099533 774.47586632 786.91267776 C771.96365498 783.8912344 769.33934175 781.00702699 766.66336632 778.13142776 C762.37378872 773.52141137 758.35925735 768.75359541 754.40946007 763.84627151 C752.07506042 761.02469281 749.64346033 758.32552065 747.16336632 755.63142776 C743.88918208 752.07472532 740.75694199 748.45980966 737.72586632 744.69392776 C734.5039353 740.6991879 731.15681137 736.88588427 727.66336632 733.13142776 C723.37381519 728.52138441 719.3592596 723.7535982 715.40946007 718.84627151 C713.07506042 716.02469281 710.64346033 713.32552065 708.16336632 710.63142776 C704.88918208 707.07472532 701.75694199 703.45980966 698.72586632 699.69392776 C695.5039353 695.6991879 692.15681137 691.88588427 688.66336632 688.13142776 C684.37381519 683.52138441 680.3592596 678.7535982 676.40946007 673.84627151 C674.07506042 671.02469281 671.64346033 668.32552065 669.16336632 665.63142776 C665.88918208 662.07472532 662.75694199 658.45980966 659.72586632 654.69392776 C656.5039353 650.6991879 653.15681137 646.88588427 649.66336632 643.13142776 C645.37381519 638.52138441 641.3592596 633.7535982 637.40946007 628.84627151 C635.07506042 626.02469281 632.64346033 623.32552065 630.16336632 620.63142776 C626.88918208 617.07472532 623.75694199 613.45980966 620.72586632 609.69392776 C617.06765617 605.15826333 613.21593666 600.87441607 609.24954796 596.61214066 C605.46846073 592.52481771 601.96646666 588.25099533 598.47586632 583.91267776 C595.96365498 580.8912344 593.33934175 578.00702699 590.66336632 575.13142776 C586.37378872 570.52141137 582.35925735 565.75359541 578.40946007 560.84627151 C576.07506042 558.02469281 573.64346033 555.32552065 571.16336632 552.63142776 C567.88918208 549.07472532 564.75694199 545.45980966 561.72586632 541.69392776 C558.5039353 537.6991879 555.15681137 533.88588427 551.66336632 530.13142776 C547.37381519 525.52138441 543.3592596 520.7535982 539.40946007 515.84627151 C537.07506042 513.02469281 534.64346033 510.32552065 532.16336632 507.63142776 C528.88918208 504.07472532 525.75694199 500.45980966 522.72586632 496.69392776 C519.5039353 492.6991879 516.15681137 488.88588427 512.66336632 485.13142776 C508.37381519 480.52138441 504.3592596 475.7535982 500.40946007 470.84627151 C498.07506042 468.02469281 495.64346033 465.32552065 493.16336632 462.63142776 C489.88918208 459.07472532 486.75694199 455.45980966 483.72586632 451.69392776 C480.5039353 447.6991879 477.15681137 443.88588427 473.66336632 440.13142776 C469.37381519 435.52138441 465.3592596 430.7535982 461.40946007 425.84627151 C459.07506042 423.02469281 456.64346033 420.32552065 454.16336632 417.63142776 C450.88918208 414.07472532 447.75694199 410.45980966 444.72586632 406.69392776 C441.06765617 402.15826333 437.21593666 397.87441607 433.24954796 393.61214066 C429.46846073 389.52481771 425.96646666 385.25099533 422.47586632 380.91267776 C419.96365498 377.8912344 417.33934175 375.00702699 414.66336632 372.13142776 C410.37378872 367.52141137 406.35925735 362.75359541 402.40946007 357.84627151 C400.07506042 355.02469281 397.64346033 352.32552065 395.16336632 349.63142776 C391.88918208 346.07472532 388.75694199 342.45980966 385.72586632 338.69392776 C382.5039353 334.6991879 379.15681137 330.88588427 375.66336632 327.13142776 C371.37381519 322.52138441 367.3592596 317.7535982 363.40946007 312.84627151 C361.07506042 310.02469281 358.64346033 307.32552065 356.16336632 304.63142776 C352.88918208 301.07472532 349.75694199 297.45980966 346.72586632 293.69392776 C343.5039353 289.6991879 340.15681137 285.88588427 336.66336632 282.13142776 C332.37381519 277.52138441 328.3592596 272.7535982 324.40946007 267.84627151 C322.07506042 265.02469281 319.64346033 262.32552065 317.16336632 259.63142776 C313.88918208 256.07472532 310.75694199 252.45980966 307.72586632 248.69392776 C304.5039353 244.6991879 301.15681137 240.88588427 297.66336632 237.13142776 C293.37381519 232.52138441 289.3592596 227.7535982 285.40946007 222.84627151 C283.07506042 220.02469281 280.64346033 217.32552065 278.16336632 214.63142776 C274.88918208 211.07472532 271.75694199 207.45980966 268.72586632 203.69392776 C265.5039353 199.6991879 262.15681137 195.88588427 258.66336632 192.13142776 C254.37381519 187.52138441 250.3592596 182.7535982 246.40946007 177.84627151 C244.07506042 175.02469281 241.64346033 172.32552065 239.16336632 169.63142776 C235.88918208 166.07472532 232.75694199 162.45980966 229.72586632 158.69392776 C225.60026346 153.5825614 221.22421916 148.76125653 216.76102257 143.94783401 C213.49110126 140.40255091 210.31164441 136.78471975 207.16336632 133.13142776 C206.15130645 136.16760737 205.96693246 138.41805894 205.84795761 141.60191995 C205.80296403 142.74832522 205.75797044 143.89473049 205.71161342 145.07587531 C205.66639591 146.34357763 205.62117841 147.61127996 205.57459068 148.9173975 C205.52294279 150.27688765 205.47090586 151.63636306 205.41851354 152.99582472 C205.27472277 156.75648184 205.13649826 160.51732663 204.99912527 164.2782229 C204.84903634 168.360655 204.6938228 172.44289265 204.53924179 176.52515668 C204.26869974 183.68863652 204.00146348 190.85223386 203.73635674 198.01591682 C203.34208985 208.66931613 202.94276205 219.32252147 202.54236811 229.97569205 C201.8688494 247.89957267 201.19944088 265.8236046 200.53232384 283.74772453 C199.87098203 301.51617418 199.20773604 319.28455111 198.54196739 337.05283546 C198.50059085 338.15712758 198.45921431 339.26141969 198.41658394 340.3991752 C198.20643134 346.00760814 197.99624276 351.61603973 197.78603911 357.22447076 C196.29571431 396.98914404 194.80936837 436.75396514 193.32547569 476.51887894 C191.88568342 515.10162168 190.44454805 553.68431378 189.00125694 592.26692581 C188.93464631 594.04761886 188.93464631 594.04761886 188.86669001 595.86428551 C187.89545683 621.82795846 186.92390532 647.79161948 185.95216767 673.75527355 C185.69415617 680.64904995 185.43615169 687.54282662 185.17814858 694.43660334 C184.96567133 700.11393034 184.75318853 705.79125714 184.54069352 711.46858349 C183.5422355 738.1452035 182.54477615 764.82186049 181.54906607 791.49858322 C180.92394394 808.24660683 180.29830584 824.9946111 179.67226076 841.74260024 C179.27639224 852.33366002 178.88105028 862.92473918 178.48644304 873.51584604 C178.22232062 880.60356006 177.95755561 887.6912499 177.69228745 894.77892114 C177.5414765 898.80897368 177.39094041 902.83903593 177.24121547 906.86912898 C176.61846973 923.62659941 175.96432859 940.38133565 175.16336632 957.13142776 C172.19336632 957.13142776 169.22336632 957.13142776 166.16336632 957.13142776 C162.52976143 868.93458336 158.97849339 780.73448359 153.35481337 639.05063589 C153.01164912 630.39712356 152.66837729 621.7436155 152.32509992 613.09010765 C150.01936184 554.96556241 147.71466718 496.84097565 145.41306114 438.71626663 C145.37685489 437.80191872 145.34064864 436.88757081 145.30334523 435.94551539 C145.12046861 431.32715678 144.93759434 426.70879808 144.75472055 422.09043936 C144.70043431 420.7194775 144.70043431 420.7194775 144.64505138 419.32081944 C144.57200006 417.4759559 144.49894903 415.63109234 144.42589829 413.78622878 C143.21909649 383.30920281 142.01093157 352.83223112 140.80123473 322.35531991 C140.63088167 318.06342821 140.46054668 313.77153578 140.29022408 309.47964287 C140.25673824 308.63585062 140.2232524 307.79205838 140.18875184 306.92269668 C139.65349805 293.43398171 139.11971291 279.94520903 138.58653632 266.45641181 C138.05447847 252.99651037 137.52099378 239.53666611 136.98603053 226.07687982 C136.66941728 218.10966094 136.35392936 210.14239938 136.0400734 202.17507139 C135.80554685 196.2246953 135.56890203 190.27440541 135.33144926 184.32414529 C135.23604857 181.92529493 135.14132748 179.52641742 135.04736866 177.12751015 C134.57652364 165.11550471 134.0693442 153.11960321 133.16336632 141.13142776 C132.56516075 141.87279984 131.96695518 142.61417191 131.35062218 143.3780098 C127.55772854 148.06998876 123.72813781 152.67236627 119.66336632 157.13142776 C116.54877964 160.54882149 113.57150012 164.03665126 110.66336632 167.63142776 C107.75523252 171.22620427 104.777953 174.71403404 101.66336632 178.13142776 C98.64054211 181.45132263 95.7382447 184.82906888 92.91336632 188.31892776 C87.69818116 194.75854769 82.2500488 200.9859818 76.80985069 207.23494339 C74.22699223 210.20997965 71.66279717 213.20086836 69.10086632 216.19392776 C68.6099752 216.76731888 68.11908409 217.34070999 67.61331749 217.93147659 C66.62451428 219.08673294 65.63582583 220.24208752 64.64725304 221.39754105 C62.65441161 223.72612937 60.65972214 226.05313039 58.66483116 228.37996292 C57.66624449 229.54481833 56.66787103 230.70985655 55.66971397 231.87508011 C53.13624354 234.83231299 50.59979007 237.78689834 48.05789757 240.73689651 C43.46730079 246.06978099 38.90575233 251.41328721 34.47586632 256.88142776 C30.9259131 261.25650524 27.20772811 265.43691969 23.41336632 269.60017776 C21.08474579 272.21987586 18.86773685 274.90658086 16.66336632 277.63142776 C13.75523252 281.22620427 10.777953 284.71403404 7.66336632 288.13142776 C4.64054211 291.45132263 1.7382447 294.82906888 -1.08663368 298.31892776 C-6.30181884 304.75854769 -11.7499512 310.9859818 -17.19014931 317.23494339 C-19.77300777 320.20997965 -22.33720283 323.20086836 -24.89913368 326.19392776 C-25.3900248 326.76731888 -25.88091591 327.34070999 -26.38668251 327.93147659 C-27.37548572 329.08673294 -28.36417417 330.24208752 -29.35274696 331.39754105 C-31.34558839 333.72612937 -33.34027786 336.05313039 -35.33516884 338.37996292 C-36.33375551 339.54481833 -37.33212897 340.70985655 -38.33028603 341.87508011 C-40.86375646 344.83231299 -43.40020993 347.78689834 -45.94210243 350.73689651 C-50.53269921 356.06978099 -55.09424767 361.41328721 -59.52413368 366.88142776 C-63.0740869 371.25650524 -66.79227189 375.43691969 -70.58663368 379.60017776 C-72.91525421 382.21987586 -75.13226315 384.90658086 -77.33663368 387.63142776 C-80.24476748 391.22620427 -83.222047 394.71403404 -86.33663368 398.13142776 C-89.35945789 401.45132263 -92.2617553 404.82906888 -95.08663368 408.31892776 C-100.30181884 414.75854769 -105.7499512 420.9859818 -111.19014931 427.23494339 C-113.77300777 430.20997965 -116.33720283 433.20086836 -118.89913368 436.19392776 C-119.3900248 436.76731888 -119.88091591 437.34070999 -120.38668251 437.93147659 C-121.37548572 439.08673294 -122.36417417 440.24208752 -123.35274696 441.39754105 C-125.34558839 443.72612937 -127.34027786 446.05313039 -129.33516884 448.37996292 C-130.33375551 449.54481833 -131.33212897 450.70985655 -132.33028603 451.87508011 C-134.86375646 454.83231299 -137.40020993 457.78689834 -139.94210243 460.73689651 C-144.53269921 466.06978099 -149.09424767 471.41328721 -153.52413368 476.88142776 C-157.0740869 481.25650524 -160.79227189 485.43691969 -164.58663368 489.60017776 C-166.91525421 492.21987586 -169.13226315 494.90658086 -171.33663368 497.63142776 C-174.24476748 501.22620427 -177.222047 504.71403404 -180.33663368 508.13142776 C-183.35945789 511.45132263 -186.2617553 514.82906888 -189.08663368 518.31892776 C-194.30181884 524.75854769 -199.7499512 530.9859818 -205.19014931 537.23494339 C-207.77300777 540.20997965 -210.33720283 543.20086836 -212.89913368 546.19392776 C-213.3900248 546.76731888 -213.88091591 547.34070999 -214.38668251 547.93147659 C-215.37548572 549.08673294 -216.36417417 550.24208752 -217.35274696 551.39754105 C-219.84558895 554.31036826 -222.34129468 557.22073975 -224.83663368 560.13142776 C-225.33098915 560.70828323 -225.82534462 561.2851387 -226.33468056 561.87947464 C-228.84576404 564.80961769 -231.35784236 567.73889772 -233.87178993 570.66658401 C-238.71239923 576.30564433 -243.54157001 581.95356201 -248.33663368 587.63142776 C-253.63319259 593.90311726 -258.97267791 600.13733848 -264.3205204 606.36531448 C-266.82764351 609.28585048 -269.33204066 612.20872205 -271.83663368 615.13142776 C-274.84698514 618.64432241 -277.85792381 622.15670393 -280.87178993 625.66658401 C-285.71239923 631.30564433 -290.54157001 636.95356201 -295.33663368 642.63142776 C-300.63319259 648.90311726 -305.97267791 655.13733848 -311.3205204 661.36531448 C-313.82764351 664.28585048 -316.33204066 667.20872205 -318.83663368 670.13142776 C-321.84698514 673.64432241 -324.85792381 677.15670393 -327.87178993 680.66658401 C-332.71239923 686.30564433 -337.54157001 691.95356201 -342.33663368 697.63142776 C-347.63319259 703.90311726 -352.97267791 710.13733848 -358.3205204 716.36531448 C-360.82764351 719.28585048 -363.33204066 722.20872205 -365.83663368 725.13142776 C-368.84698514 728.64432241 -371.85792381 732.15670393 -374.87178993 735.66658401 C-379.71239923 741.30564433 -384.54157001 746.95356201 -389.33663368 752.63142776 C-394.63319259 758.90311726 -399.97267791 765.13733848 -405.3205204 771.36531448 C-407.82764351 774.28585048 -410.33204066 777.20872205 -412.83663368 780.13142776 C-415.84698514 783.64432241 -418.85792381 787.15670393 -421.87178993 790.66658401 C-426.71239923 796.30564433 -431.54157001 801.95356201 -436.33663368 807.63142776 C-441.63319259 813.90311726 -446.97267791 820.13733848 -452.3205204 826.36531448 C-454.82764351 829.28585048 -457.33204066 832.20872205 -459.83663368 835.13142776 C-462.84698514 838.64432241 -465.85792381 842.15670393 -468.87178993 845.66658401 C-473.71239923 851.30564433 -478.54157001 856.95356201 -483.33663368 862.63142776 C-488.63319259 868.90311726 -493.97267791 875.13733848 -499.3205204 881.36531448 C-501.82764351 884.28585048 -504.33204066 887.20872205 -506.83663368 890.13142776 C-509.84698514 893.64432241 -512.85792381 897.15670393 -515.87178993 900.66658401 C-520.71239923 906.30564433 -525.54157001 911.95356201 -530.33663368 917.63142776 C-536.63571774 925.09021375 -542.99658139 932.49558011 -549.35714149 939.90193558 C-556.55257282 948.28195238 -563.71331249 956.69001171 -570.83663368 965.13142776 C-573.82883637 963.76772477 -576.12689897 962.18234693 -578.58663368 960.00642776 C-579.50702431 959.19818558 -579.50702431 959.19818558 -580.44600868 958.37361526 C-581.13436806 957.75873245 -581.13436806 957.75873245 -581.83663368 957.13142776 C-578.86100068 951.58658969 -575.38305437 946.79191789 -571.46163368 941.88142776 C-566.4662648 935.54801365 -561.59130511 929.14743693 -556.83663368 922.63142776 C-552.27032279 916.38225461 -547.61401346 910.22075466 -542.83663368 904.13142776 C-537.50201108 897.32915294 -532.33069121 890.42482398 -527.22725868 883.44783401 C-522.83432202 877.45391599 -518.35422562 871.53183433 -513.83663368 865.63142776 C-508.77000559 859.01204502 -503.76227909 852.3563957 -498.83663368 845.63142776 C-493.25000948 838.0040276 -487.5438703 830.47498212 -481.79757118 822.96736526 C-477.41599043 817.23240049 -473.10120411 811.45383213 -468.83663368 805.63142776 C-463.25000948 798.0040276 -457.5438703 790.47498212 -451.79757118 782.96736526 C-447.41599043 777.23240049 -443.10120411 771.45383213 -438.83663368 765.63142776 C-433.25000948 758.0040276 -427.5438703 750.47498212 -421.79757118 742.96736526 C-417.41599043 737.23240049 -413.10120411 731.45383213 -408.83663368 725.63142776 C-403.25000948 718.0040276 -397.5438703 710.47498212 -391.79757118 702.96736526 C-387.41599043 697.23240049 -383.10120411 691.45383213 -378.83663368 685.63142776 C-373.25000948 678.0040276 -367.5438703 670.47498212 -361.79757118 662.96736526 C-357.41598947 657.23239924 -353.10125505 651.45379602 -348.83663368 645.63142776 C-342.48057186 636.9549424 -335.97442962 628.39831704 -329.44210243 619.85408401 C-326.72064293 616.29407175 -324.01790473 612.72177738 -321.33663368 609.13142776 C-317.99728439 604.65988004 -314.61686112 600.22125132 -311.22725868 595.78767776 C-304.77746007 587.34959536 -298.40272977 578.86539102 -292.12691689 570.29719925 C-287.10284972 563.45433032 -281.95711 556.70837192 -276.79757118 549.96736526 C-272.41599043 544.23240049 -268.10120411 538.45383213 -263.83663368 532.63142776 C-258.25000948 525.0040276 -252.5438703 517.47498212 -246.79757118 509.96736526 C-242.41599043 504.23240049 -238.10120411 498.45383213 -233.83663368 492.63142776 C-228.25000948 485.0040276 -222.5438703 477.47498212 -216.79757118 469.96736526 C-212.41599043 464.23240049 -208.10120411 458.45383213 -203.83663368 452.63142776 C-198.25000948 445.0040276 -192.5438703 437.47498212 -186.79757118 429.96736526 C-182.41599043 424.23240049 -178.10120411 418.45383213 -173.83663368 412.63142776 C-168.25000948 405.0040276 -162.5438703 397.47498212 -156.79757118 389.96736526 C-152.41599043 384.23240049 -148.10120411 378.45383213 -143.83663368 372.63142776 C-138.25000948 365.0040276 -132.5438703 357.47498212 -126.79757118 349.96736526 C-122.41598677 344.23239571 -118.10141765 338.45367921 -113.83663368 332.63142776 C-105.64610498 321.45659028 -97.21751118 310.46625818 -88.79561806 299.46541214 C-81.14885031 289.47256032 -73.56086567 279.44610681 -66.1252079 269.29500198 C-61.10187127 262.45274856 -55.95654454 255.70763314 -50.79757118 248.96736526 C-46.41599043 243.23240049 -42.10120411 237.45383213 -37.83663368 231.63142776 C-32.25000948 224.0040276 -26.5438703 216.47498212 -20.79757118 208.96736526 C-16.41599043 203.23240049 -12.10120411 197.45383213 -7.83663368 191.63142776 C-2.25000948 184.0040276 3.4561297 176.47498212 9.20242882 168.96736526 C13.58400957 163.23240049 17.89879589 157.45383213 22.16336632 151.63142776 C27.08901557 144.90645458 32.09695834 138.25098347 37.16336632 131.63142776 C46.36197042 119.60960009 55.37417541 107.45577504 64.16336632 95.13142776 C62.93427292 95.16021263 62.93427292 95.16021263 61.68034935 95.18957901 C53.92800182 95.36829733 46.1755501 95.53162325 38.42253017 95.67801571 C34.43738643 95.75379678 30.45254191 95.83535694 26.46780968 95.93050003 C22.61654552 96.0222374 18.76525126 96.09830332 14.91345596 96.16387749 C13.44987596 96.19147756 11.98638791 96.22455928 10.52306366 96.26342201 C-7.40259352 96.73104281 -7.40259352 96.73104281 -13.40851784 91.85535049 C-18.69520558 86.14937597 -19.13520018 79.17679936 -18.98116493 71.76814651 C-18.97244865 70.9549646 -18.96373238 70.14178268 -18.95475197 69.30395889 C-18.93448756 67.52648269 -18.9095955 65.74905463 -18.88064003 63.97169876 C-18.83495613 61.02315482 -18.80744451 58.07485268 -18.78341103 55.12605667 C-18.73681981 49.81772247 -18.66199763 44.51027489 -18.57418251 39.20247269 C-18.54051536 37.01049518 -18.51262104 34.81842218 -18.49019814 32.62630081 C-18.45661058 29.40499263 -18.40442223 26.18444488 -18.34835243 22.96345901 C-18.34196251 21.99253815 -18.33557259 21.02161728 -18.32898903 20.02127457 C-18.20088511 14.07312691 -17.38047778 9.53839004 -14.83663368 4.13142776 C-10.21030957 0.45409321 -5.76345608 0.00692079 0 0 Z " fill="#FEE8D0" transform="translate(2197.836633682251,2218.8685722351074)"/>
<path d="M0 0 C0.78761719 0.72445313 1.57523438 1.44890625 2.38671875 2.1953125 C4.49539527 4.13102603 6.64286328 6.00819976 8.8125 7.875 C27.23604828 23.96785844 41.36403497 44.25898585 53.625 65.25 C54.01381348 65.90500488 54.40262695 66.56000977 54.80322266 67.23486328 C69.78480114 92.67801384 78.31377767 122.20686337 82.625 151.25 C82.74214355 151.99362793 82.85928711 152.73725586 82.97998047 153.50341797 C86.69972138 177.82820217 85.91970135 204.08385075 81.625 228.25 C81.45871094 229.19311035 81.29242187 230.1362207 81.12109375 231.10791016 C72.98123482 275.56812108 52.3479883 316.44646246 21.8984375 349.75390625 C20.40680459 351.39162692 18.93209219 353.04495423 17.4765625 354.71484375 C-22.11417317 399.95118974 -83.55995657 427.42236974 -142.98046875 431.58984375 C-207.74749727 435.66855635 -272.74669081 416.82456588 -322.05761719 373.78125 C-325.90851865 370.3522734 -329.65884291 366.82400253 -333.375 363.25 C-333.86629395 362.78062012 -334.35758789 362.31124023 -334.86376953 361.82763672 C-341.58711423 355.37548575 -347.68542219 348.62716445 -353.375 341.25 C-353.79749023 340.7039209 -354.21998047 340.1578418 -354.65527344 339.59521484 C-362.33313783 329.60389605 -369.03873841 319.13466721 -375.375 308.25 C-375.7369043 307.63753418 -376.09880859 307.02506836 -376.47167969 306.39404297 C-398.51580611 268.77136405 -407.87496644 223.79333735 -407.6875 180.5625 C-407.68501251 179.64080017 -407.68252502 178.71910034 -407.67996216 177.76947021 C-407.54883609 146.28899624 -401.91846907 116.27900467 -389.375 87.25 C-388.85317139 86.03908691 -388.85317139 86.03908691 -388.32080078 84.80371094 C-378.3910677 62.12665462 -364.71882076 41.77145244 -348.375 23.25 C-347.93575195 22.74758789 -347.49650391 22.24517578 -347.04394531 21.72753906 C-319.39135699 -9.77878285 -283.04030429 -33.34945582 -243.375 -46.75 C-242.56530762 -47.02537598 -241.75561523 -47.30075195 -240.92138672 -47.58447266 C-159.74881514 -74.69647109 -64.13165682 -57.51412622 0 0 Z M-265.375 100.25 C-289.90544936 130.04420465 -297.1495968 164.46430326 -295.375 202.25 C-294.70033983 209.08613989 -293.25323647 215.65225068 -291.375 222.25 C-291.19308105 222.91692871 -291.01116211 223.58385742 -290.82373047 224.27099609 C-285.65939741 242.79152207 -275.75491996 259.66018541 -263.375 274.25 C-262.63636719 275.13558594 -261.89773437 276.02117187 -261.13671875 276.93359375 C-239.61690075 301.76415298 -208.64747796 316.16779592 -176.375 320.25 C-141.67320059 322.1509297 -109.01066247 315.35084273 -81.375 293.25 C-80.8298877 292.81703613 -80.28477539 292.38407227 -79.72314453 291.93798828 C-53.61593133 271.01580599 -37.28374105 242.14731505 -31.375 209.25 C-31.189375 208.24710938 -31.00375 207.24421875 -30.8125 206.2109375 C-26.82245374 170.08676865 -35.41938376 133.47296964 -58.109375 104.70703125 C-60.76105352 101.45863116 -63.53844203 98.33721111 -66.375 95.25 C-67.55835937 93.94289063 -67.55835937 93.94289063 -68.765625 92.609375 C-91.07266543 69.12050461 -124.01900602 54.40557121 -156.375 53.25 C-157.365 53.1984375 -158.355 53.146875 -159.375 53.09375 C-200.45751611 51.93103728 -238.28266622 69.71518417 -265.375 100.25 Z " fill="#FEE8D0" transform="translate(3316.375,1392.75)"/>
<path d="M0 0 C3.8561886 3.42973419 7.60748654 6.96367851 11.32470703 10.54296875 C11.84838867 11.04473633 12.37207031 11.54650391 12.91162109 12.06347656 C19.92680897 18.81803826 26.38248158 25.80686391 32.32470703 33.54296875 C32.75638184 34.1035498 33.18805664 34.66413086 33.6328125 35.24169922 C40.55916305 44.29242566 46.74324614 53.60868546 52.32470703 63.54296875 C52.72544434 64.24873047 53.12618164 64.95449219 53.5390625 65.68164062 C70.93845081 96.58067148 82.34628047 132.77799483 82.52783203 168.45703125 C82.53489166 169.38109268 82.54195129 170.30515411 82.54922485 171.25721741 C82.77631176 209.71255031 82.77631176 209.71255031 79.32470703 226.54296875 C79.01871582 228.07993408 79.01871582 228.07993408 78.70654297 229.64794922 C67.13548004 286.517955 37.60078727 340.53601868 -8.67529297 376.54296875 C-10.11388672 377.70699219 -10.11388672 377.70699219 -11.58154297 378.89453125 C-62.02051282 419.01643909 -128.53911813 436.33321965 -192.35546875 429.77319336 C-244.44581512 423.35345306 -292.93901677 399.88839363 -330.67529297 363.54296875 C-331.33464844 362.91084473 -331.99400391 362.2787207 -332.67333984 361.62744141 C-341.59063387 353.0332672 -350.05301594 344.35310772 -357.36279297 334.33837891 C-358.72950488 332.46881057 -360.12419532 330.62208187 -361.51904297 328.7734375 C-400.10658159 276.76303469 -417.09830947 208.71151612 -407.71435547 144.6328125 C-400.97713613 103.37236686 -384.79754228 65.27001688 -358.67529297 32.54296875 C-358.25521973 32.00720215 -357.83514648 31.47143555 -357.40234375 30.91943359 C-345.38333904 15.66657293 -331.20565882 1.18401306 -315.43554688 -10.18408203 C-313.54299813 -11.55270189 -311.6785049 -12.95546558 -309.81201172 -14.359375 C-226.62832652 -75.96548708 -105.71577838 -75.75343994 0 0 Z M-200.67529297 55.54296875 C-201.77284912 55.86442871 -201.77284912 55.86442871 -202.89257812 56.19238281 C-223.90547567 62.57569505 -241.8439495 73.37552033 -257.67529297 88.54296875 C-258.55701172 89.34992188 -259.43873047 90.156875 -260.34716797 90.98828125 C-283.05768977 112.47987674 -296.85083847 145.05127528 -297.87841797 176.21484375 C-298.4831964 215.10822131 -285.60494441 248.73662346 -259.67529297 277.54296875 C-258.71236328 278.63158203 -258.71236328 278.63158203 -257.72998047 279.7421875 C-236.98176419 301.88260011 -204.24344968 316.20801243 -174.10400391 317.66748047 C-140.52648123 318.61291264 -105.85804059 310.9071092 -80.17529297 287.85546875 C-79.40056641 287.11296875 -78.62583984 286.37046875 -77.82763672 285.60546875 C-75.87028227 283.72981875 -73.84770392 282.05358622 -71.73779297 280.35546875 C-47.71876434 259.3995956 -35.17254693 225.49948209 -31.92529297 194.60546875 C-31.81811113 192.91931551 -31.73494822 191.23147162 -31.67529297 189.54296875 C-31.63533203 188.56972656 -31.59537109 187.59648437 -31.55419922 186.59375 C-30.87541936 154.13210162 -41.75172809 122.37933974 -62.67529297 97.54296875 C-63.41650391 96.64964844 -64.15771484 95.75632812 -64.92138672 94.8359375 C-70.26607946 88.63380742 -76.19018586 83.51970136 -82.67529297 78.54296875 C-83.97080078 77.52396484 -83.97080078 77.52396484 -85.29248047 76.484375 C-117.07177757 52.29627498 -162.39343618 44.28712632 -200.67529297 55.54296875 Z " fill="#FEE8D0" transform="translate(3318.67529296875,1908.45703125)"/>
<path d="M0 0 C0 146.52 0 293.04 0 444 C-4.09969832 441.95015084 -7.16047785 439.43181692 -10.5625 436.4375 C-11.82206003 435.34276361 -13.08248534 434.24902202 -14.34375 433.15625 C-15.27574219 432.34800781 -15.27574219 432.34800781 -16.2265625 431.5234375 C-18.63774159 429.4521603 -21.09467909 427.44078991 -23.5625 425.4375 C-28.1484649 421.71350794 -32.66325289 417.91381845 -37.16210938 414.08569336 C-40.59061398 411.17420968 -44.0597861 408.32233063 -47.5625 405.5 C-52.10218865 401.80736696 -56.43523089 397.93859486 -60.71533203 393.9519043 C-63.55302991 391.30931561 -66.44733324 388.77994964 -69.4375 386.3125 C-76.59616271 380.04495713 -80.34150618 371.65647663 -81.27524066 362.21769142 C-81.38415705 359.14366102 -81.40006617 356.0829862 -81.38095093 353.00708008 C-81.3856309 351.83769551 -81.39031087 350.66831095 -81.39513266 349.46349049 C-81.40497323 346.24442238 -81.40150649 343.02569827 -81.39217401 339.80663919 C-81.38535325 336.32463736 -81.39587966 332.84268008 -81.40411377 329.36068726 C-81.41742118 322.5500458 -81.41458676 315.73950379 -81.40587585 308.92885852 C-81.39908789 303.39141702 -81.39818738 297.8540033 -81.4014473 292.31655884 C-81.401907 291.52704765 -81.40236669 290.73753646 -81.40284032 289.9241007 C-81.40379954 288.31999134 -81.40477219 286.715882 -81.4057581 285.11177266 C-81.41430323 270.08641314 -81.40449165 255.06110863 -81.388357 240.03575814 C-81.37495461 227.15629821 -81.37728295 214.27691941 -81.39111328 201.39746094 C-81.40718461 186.42416264 -81.41347933 171.45091249 -81.40427649 156.47760677 C-81.40332089 154.87955158 -81.40237778 153.28149637 -81.4014473 151.68344116 C-81.40098447 150.89726262 -81.40052164 150.11108409 -81.40004479 149.30108196 C-81.39745956 143.77327013 -81.40181581 138.24548896 -81.40888596 132.71768188 C-81.41731843 125.9768562 -81.4149842 119.23613527 -81.39904372 112.49532151 C-81.39118443 109.05910242 -81.38802912 105.62305768 -81.39799118 102.18684006 C-81.40620634 98.45536025 -81.39588449 94.72436875 -81.38095093 90.99291992 C-81.38764309 89.91605832 -81.39433526 88.83919672 -81.40123022 87.72970295 C-81.33920148 79.72168179 -80.63772162 70.82402885 -74.75 64.8125 C-73.82767578 63.84957031 -73.82767578 63.84957031 -72.88671875 62.8671875 C-72.26410156 62.25101563 -71.64148437 61.63484375 -71 61 C-70.42894531 60.40445312 -69.85789062 59.80890625 -69.26953125 59.1953125 C-65.73366711 55.55426247 -61.99986797 52.18642472 -58.15625 48.875 C-55.80037042 46.82640906 -53.4949254 44.72796998 -51.1875 42.625 C-47.72469918 39.49577173 -44.19320997 36.49499651 -40.5625 33.5625 C-35.788597 29.70174863 -31.26611572 25.62562925 -26.75 21.46875 C-23.20027829 18.28206801 -19.50138315 15.30542904 -15.78515625 12.31640625 C-11.78288747 8.98773109 -8.00203237 5.44094012 -4.21484375 1.87109375 C-2 0 -2 0 0 0 Z " fill="#FEE8D0" transform="translate(1775,1656)"/>
<path d="M0 0 C37.62 0 75.24 0 114 0 C114 77.88 114 155.76 114 236 C76.38 236 38.76 236 0 236 C0 158.12 0 80.24 0 0 Z " fill="#FEE8D0" transform="translate(1558,1760)"/>
<path d="M0 0 C5.6108687 5.6108687 5.6108687 5.6108687 7.359375 8.41796875 C7.74810791 9.02737305 8.13684082 9.63677734 8.53735352 10.26464844 C8.93752686 10.89918945 9.3377002 11.53373047 9.75 12.1875 C13.37302705 17.77766189 17.22130864 22.76146093 21.796875 27.625 C24.0819579 30.08835178 26.20077031 32.63692441 28.3125 35.25 C32.74647203 40.72318422 37.31120685 46.07198875 41.91015625 51.40625 C43.91146559 53.72784405 45.8983426 56.06034887 47.87109375 58.40625 C58.25261742 70.71926111 69.1040518 82.56856168 81 93.4375 C91.32240959 102.91058056 100.27054583 112.79009439 101.14717102 127.46340942 C101.15701523 128.32513763 101.16685944 129.18686584 101.17700195 130.07470703 C101.19625481 131.55247116 101.19625481 131.55247116 101.21589661 133.06008911 C101.22328354 134.11533783 101.23067047 135.17058655 101.23828125 136.2578125 C101.246353 137.35664764 101.25442474 138.45548279 101.26274109 139.58761597 C101.27655589 141.91256139 101.28728965 144.23752687 101.29516602 146.5625 C101.30667003 148.92681877 101.32709656 151.29111189 101.35668945 153.65527344 C101.3996028 157.08546462 101.4155695 160.51488535 101.42578125 163.9453125 C101.44328934 164.98841583 101.46079742 166.03151917 101.47883606 167.10623169 C101.42873074 184.30296523 92.1776196 193.99115208 80.68237305 205.50878906 C77.55017854 208.60205141 74.36316964 211.58733231 71.03125 214.46484375 C66.81576008 218.11188977 62.86632444 221.9858114 58.9375 225.9375 C58.26912109 226.60201172 57.60074219 227.26652344 56.91210938 227.95117188 C52.98460941 231.88630546 49.24610994 235.93116888 45.61450195 240.14038086 C43.34409524 242.75548564 40.98548388 245.27834689 38.625 247.8125 C34.32062961 252.46523507 30.28687963 257.27916388 26.3125 262.21875 C23.3646402 265.76414895 20.24762561 269.12882956 17.10131836 272.49755859 C13.14788591 276.75938522 9.53582833 281.22481953 5.97265625 285.8203125 C4 288 4 288 0 290 C0 194.3 0 98.6 0 0 Z " fill="#FEE8D0" transform="translate(2909,1690)"/>
<path d="M0 0 C-3.27343248 3.62798562 -7.03357395 6.0147063 -11.1875 8.5 C-27.12358583 18.25967931 -41.85015014 29.28905643 -55.6640625 41.8828125 C-57.76918748 43.79080203 -59.90613634 45.65047069 -62.0625 47.5 C-69.28792146 53.825871 -75.69477717 60.62759868 -81.6875 68.12890625 C-84.04566982 71.05670155 -86.4878993 73.89851169 -88.9375 76.75 C-94.53688806 83.46753211 -99.33530572 90.61094377 -104 98 C-104.39074707 98.6177832 -104.78149414 99.23556641 -105.18408203 99.87207031 C-110.67928201 108.63026146 -115.58328288 117.61466894 -120.02490234 126.95068359 C-120.66465521 128.29522178 -121.31061975 129.63682558 -121.96337891 130.97509766 C-131.96837676 151.57899734 -138.60780851 173.77372921 -143.75610352 196.04052734 C-145.55526998 203.74635902 -147.1536629 209.83577055 -153.25 215.25 C-154.34054688 216.24773437 -154.34054688 216.24773437 -155.453125 217.265625 C-160.99760527 221.04131402 -166.94336574 221.2890076 -173.41381836 221.22705078 C-174.2243869 221.22734283 -175.03495544 221.22763489 -175.87008667 221.22793579 C-178.52678448 221.22655184 -181.18319544 221.21103505 -183.83984375 221.1953125 C-185.69071805 221.19157904 -187.54159433 221.18873364 -189.39247131 221.18673706 C-194.24713668 221.17912682 -199.10168104 221.15950087 -203.95629883 221.1373291 C-208.91681278 221.11681432 -213.87734642 221.10772333 -218.83789062 221.09765625 C-228.55864671 221.07625241 -238.27931326 221.04214813 -248 221 C-247.6904304 217.94362575 -247.37764012 214.88763878 -247.06298828 211.83178711 C-246.97604202 210.97005638 -246.88909576 210.10832565 -246.79951477 209.22048187 C-246.21194212 203.5456865 -245.44450567 198.05907545 -243.875 192.5625 C-243.66182129 191.79212402 -243.44864258 191.02174805 -243.22900391 190.22802734 C-237.07540175 168.89065946 -227.08504473 147.94724714 -214 130 C-213.56606934 129.39913574 -213.13213867 128.79827148 -212.68505859 128.17919922 C-200.21903743 110.97480706 -186.29712109 93.20185524 -169.88671875 79.578125 C-167.70365939 77.75212918 -165.64517753 75.81464608 -163.5625 73.875 C-156.42176607 67.43627371 -148.70336197 61.74004322 -141 56 C-140.40171387 55.54979492 -139.80342773 55.09958984 -139.18701172 54.63574219 C-101.95660002 26.70487023 -47.85640321 -1.4955126 0 0 Z " fill="#FEE8D0" transform="translate(3041,1316)"/>
<path d="M0 0 C2.90090327 1.45045163 3.08880379 3.30223394 4.25 6.30078125 C4.68812012 7.41308105 5.12624023 8.52538086 5.57763672 9.67138672 C6.0470166 10.8729541 6.51639648 12.07452148 7 13.3125 C18.77392603 42.86265031 34.25458283 70.4952535 56.046875 93.89453125 C57.81228247 95.7976405 59.4675178 97.75348735 61.125 99.75 C84.7842691 126.7193962 116.82191746 145.21038284 149.01367188 160.06982422 C151.70183886 161.32866348 154.35368427 162.65577274 157 164 C157 164.33 157 164.66 157 165 C120.48998856 165.64470273 120.48998856 165.64470273 103 162 C101.55633057 161.70198486 101.55633057 161.70198486 100.08349609 161.39794922 C49.91034609 150.75080961 2.42246329 127.92591473 -35.5546875 93.22265625 C-37.90151662 91.08951605 -40.29034586 89.01367927 -42.6875 86.9375 C-46.847058 83.22723223 -50.46332801 79.30191681 -54 75 C-54.43715332 74.48050781 -54.87430664 73.96101563 -55.32470703 73.42578125 C-80 44.05632523 -80 44.05632523 -80 33 C-78.76548096 32.98541748 -77.53096191 32.97083496 -76.2590332 32.95581055 C-71.61992349 32.8972494 -66.98127027 32.82002705 -62.3425293 32.73754883 C-60.34586063 32.70456864 -58.34910474 32.67645572 -56.35229492 32.65356445 C-32.50717478 32.5054612 -32.50717478 32.5054612 -12.0390625 21.25390625 C-6.37690903 15.30740883 -2.58409088 7.75227263 0 0 Z " fill="#FEE8D0" transform="translate(2902,2181)"/>
<path d="M0 0 C6.76455805 5.83971613 11.33287667 11.52163053 12.17578125 20.625 C12.90266678 31.79826905 12.01189459 40.83881233 5 49.9765625 C-1.671354 57.09556147 -10.93179791 60.60239296 -20.51171875 60.9296875 C-34.6292322 61.14614696 -44.8754159 60.26757591 -56 50.7265625 C-63.0414388 43.41559494 -64.50373664 34.52174252 -64.41943359 24.67993164 C-64.09032568 15.65918988 -61.15174573 9.02334713 -54.9921875 2.48046875 C-40.70479351 -10.09804086 -15.30135753 -11.41976316 0 0 Z " fill="#FEE8D0" transform="translate(2786,1949.2734375)"/>
<path d="M0 0 C5.95877058 5.10595571 10.3509806 11.82295731 11.22143555 19.7722168 C11.34029378 22.04015348 11.37973724 24.29146812 11.375 26.5625 C11.37338867 27.36204102 11.37177734 28.16158203 11.37011719 28.98535156 C11.2446214 35.0165316 10.29770012 39.61386078 7 44.75 C6.443125 45.801875 5.88625 46.85375 5.3125 47.9375 C-1.03898636 55.6622807 -10.28219982 59.39930945 -20 60.75 C-32.97867426 61.5670594 -44.78508734 60.36058244 -55 51.75 C-61.27167142 46.02552139 -64.54249027 39.34843963 -65.3828125 30.90234375 C-65.8304958 20.68084842 -64.30146612 12.51814128 -57.75 4.4375 C-43.37539657 -10.70008663 -16.80198074 -12.05659373 0 0 Z " fill="#FEE8D0" transform="translate(2787,1589.25)"/>
</svg>
